<?xml version="1.0" encoding="UTF-8"?>
<svg id="Layer_2" data-name="Layer 2" xmlns="http://www.w3.org/2000/svg" viewBox="0 0 248.51 230.93">
  <defs>
    <style>
      .cls-1 {
        fill: #ffde17;
        stroke: #ffde17;
        stroke-miterlimit: 10;
      }
    </style>
  </defs>
  <g id="Layer_1-2" data-name="Layer 1">
    <path class="cls-1" d="M145.66,67.44c-.59-1.67-1.22-3.3-2.21-4.8-1.26-1.9-2.71-3.6-4.46-5.06-1.96-1.63-4.12-2.87-6.49-3.76-3.83-1.43-7.76-1.78-11.78-1.14-3.68.58-7,2.02-9.99,4.22-1.66,1.23-3.12,2.69-4.34,4.35-.82,1.11-1.55,2.31-2.16,3.55-1.19,2.41-1.8,5.01-1.9,7.69-.15,3.74.42,7.36,2.33,10.65.66,1.14,1.4,2.25,2.17,3.32,1.22,1.69,2.78,3.06,4.49,4.26,1.34.94,2.76,1.72,4.27,2.36,2.83,1.19,5.77,1.75,7.57,1.77,5.12.01,8.52-.82,11.95-2.58,2.52-1.29,4.69-3.05,6.54-5.18.8-.93,1.5-1.96,2.16-2.99,1.01-1.6,1.7-3.37,2.17-5.17,1.01-3.84,1.03-7.69-.3-11.49ZM145.55,74.93c-.13,2.43-.67,4.78-1.73,6.96-.62,1.27-1.36,2.5-2.2,3.64-1.2,1.63-2.69,3.02-4.32,4.24-.67.5-1.4.91-2.12,1.36-.14.09-.31.14-.53.23,0-1.2,0-2.34,0-3.47,0-.08.06-.18.12-.24,1.36-1.3,2.69-2.64,4.1-3.88.47-.41.57-.82.56-1.38-.03-1.09,0-2.19,0-3.26,1.35-.61,1.84-1.74,1.26-2.84-.58-1.1-2.05-1.44-3.02-.65-.62.51-1.09,1.14-.8,2.01.19.58.58,1.05,1.16,1.3.31.13.37.31.36.61-.02.97.01,1.94-.02,2.9,0,.22-.11.5-.27.65-1.36,1.32-2.73,2.63-4.11,3.93-.25.24-.34.49-.33.83.02,1.22.02,2.44,0,3.67,0,.16-.11.4-.23.45-1.08.43-2.18.82-3.34,1.26v-.6c0-2.32,0-4.63,0-6.95,0-.36.13-.59.38-.82.56-.51,1.12-1.02,1.66-1.56.11-.11.16-.31.17-.47.03-.33,0-.66,0-.97.29-.15.59-.25.82-.43.77-.58.96-1.68.46-2.52-.48-.81-1.67-1.17-2.54-.81-1.45.6-1.55,2.05-.97,2.84.21.29.55.51.86.7.46.28.6.89.2,1.27-.56.56-1.16,1.07-1.71,1.64-.17.18-.29.49-.29.74-.02,2.68-.01,5.36-.01,8.15-1.37.16-2.73.32-4.12.49-.01-.23-.03-.37-.03-.51,0-2.21,0-4.41,0-6.62,0-.31.09-.45.37-.61.93-.5,1.38-1.24,1.17-2.19-.13-.6-1.11-1.54-1.97-1.54-.96,0-1.81.59-2.04,1.47-.23.91.16,1.82,1.01,2.23.32.15.42.32.42.68-.02,2.32,0,4.63,0,7.07-1.36-.15-2.68-.31-4.06-.46,0-.27,0-.46,0-.65,0-2.55.01-5.11,0-7.66,0-.16-.06-.36-.17-.47-.49-.49-.99-.98-1.52-1.42-.44-.37-.66-.8-.48-1.43.58-.23,1.14-.61,1.32-1.3.1-.38.1-.83,0-1.21-.22-.88-1.08-1.41-2.04-1.37-.82.04-1.74.75-1.91,1.47-.24,1.02.19,1.73,1.51,2.44,0,.15.03.31,0,.46-.16.71.27,1.12.73,1.52.44.39.87.78,1.28,1.19.1.1.18.27.18.41.01,2.54,0,5.08,0,7.74-1.02-.37-1.96-.75-2.93-1.06-.55-.18-.7-.47-.67-1.03.05-1.14.04-2.28.02-3.43,0-.19-.12-.43-.26-.57-1.25-1.24-2.47-2.51-3.79-3.66-.56-.48-.71-.95-.68-1.62.04-.9.01-1.81.01-2.7,1.36-.73,1.8-1.45,1.51-2.49-.24-.87-1.07-1.44-2.07-1.42-.82.02-1.76.63-1.93,1.53-.2,1.05.22,1.74,1.54,2.36,0,1.24-.02,2.49.01,3.74,0,.23.13.52.29.69,1,1.01,2.04,1.99,3.06,2.98.32.31.64.61.98.88.27.22.34.49.34.83-.02,1.01,0,2.02,0,3.11-.52-.29-.99-.51-1.41-.79-1.34-.9-2.67-1.83-3.74-3.06-.78-.91-1.53-1.85-2.29-2.77-.98-1.19-1.52-2.61-2.13-3.99-1.11-2.5-1.42-5.13-1.37-7.82.04-1.78.25-3.56.89-5.23.63-1.63,1.4-3.21,2.25-4.73.54-.97,1.28-1.85,2.05-2.66,1.65-1.76,3.49-3.29,5.75-4.41v1.15c0,.44-.06.9.01,1.33.18,1.02-.37,1.62-1.12,2.14-.08.05-.14.12-.21.19-1.01.98-2.02,1.97-3.04,2.93-.24.23-.33.46-.32.79.02,1.22,0,2.44,0,3.69-1.3.59-1.74,1.31-1.54,2.36.18.92,1.2,1.54,2.04,1.53,1.02-.02,1.79-.62,1.98-1.58.21-1.02-.27-1.76-1.54-2.31,0-1.17-.01-2.36.02-3.55,0-.18.2-.38.35-.53.23-.24.5-.43.74-.66,1.11-1.07,2.22-2.12,3.3-3.22.18-.18.3-.51.31-.78.03-1.24,0-2.48.02-3.71,0-.13.09-.32.19-.36,1.09-.44,2.2-.86,3.36-1.31.01.26.03.4.03.54,0,2.35,0,4.7-.01,7.05,0,.24-.13.52-.29.69-.44.47-.92.92-1.41,1.33-.38.31-.55.67-.48,1.15.03.2,0,.41,0,.47-.48.42-.9.74-1.28,1.11-.35.34-.41,1.36-.08,1.8.51.71,1.14,1.21,2.1,1.1.9-.1,1.58-.69,1.78-1.59.17-.79-.25-1.66-1.01-2.08-.56-.31-.64-.89-.17-1.36.59-.57,1.2-1.12,1.78-1.7.11-.11.16-.34.16-.52,0-2.62,0-5.24,0-7.86,0-.09.02-.19.03-.39,1.31-.15,2.64-.31,4-.47.01.25.02.41.02.56,0,2.17,0,4.35,0,6.52,0,.31-.05.5-.38.65-.76.35-1.15,1-1.11,1.84.04.83.49,1.43,1.27,1.74.75.3,1.63.08,2.2-.47.55-.53.8-1.14.57-1.88-.2-.61-.66-1.01-1.22-1.31-.13-.07-.27-.27-.27-.4-.02-2.33-.01-4.67,0-7,0-.05.02-.09.05-.25,1.35.16,2.71.31,4.1.47,0,.27,0,.46,0,.64,0,2.55-.02,5.11,0,7.66,0,.19.13.42.27.57.54.55,1.13,1.06,1.68,1.6.47.46.4,1.11-.2,1.34-.89.34-1.36,1.53-.99,2.43.37.9,1.52,1.46,2.48,1.19.76-.22,1.29-.68,1.46-1.47.16-.77-.06-1.46-.7-1.95-.23-.18-.52-.28-.79-.41.28-1.46-.85-2.12-1.71-2.91-.33-.3-.52-.56-.52-1.02.02-2.27,0-4.54,0-6.81v-.64c1.16.43,2.24.82,3.31,1.24.13.05.26.28.26.42.02,1.25,0,2.51.02,3.76,0,.25.12.56.3.74.92.93,1.88,1.84,2.83,2.74.44.43.91.83,1.35,1.26.11.11.23.29.23.43.02,1.17.01,2.35.01,3.5-1.2.51-1.8,1.53-1.53,2.38.22.68,1.07,1.56,2.01,1.52.99-.04,1.78-.6,1.99-1.51.24-1.03-.23-1.82-1.43-2.4,0-1.22,0-2.46,0-3.69,0-.3.01-.57-.34-.7-.05-.02-.09-.08-.14-.13-1.26-1.23-2.49-2.49-3.8-3.66-.44-.4-.53-.78-.51-1.3.02-.89,0-1.78,0-2.74.18.07.33.11.45.19,1.18.82,2.4,1.59,3.51,2.5,2.06,1.68,3.61,3.76,4.85,6.12,1.69,3.22,2.28,6.64,2.08,10.23ZM138.85,78.19c-.54,0-.98-.46-.98-1.01,0-.54.42-.97.95-.98.64-.02,1.1.39,1.1.98,0,.59-.44,1.02-1.07,1.02ZM131.8,80.9c-.57,0-1.01-.41-1.01-.96,0-.54.44-.99.99-.99.53,0,1.08.49,1.09.97,0,.48-.53.98-1.06.99ZM124.46,85.44c-.66,0-1.08-.39-1.06-1,.01-.57.44-.96,1.07-.97.55,0,.99.43.99.99,0,.57-.41.97-.99.97ZM117.07,80.9c-.58,0-.99-.42-.98-.99,0-.56.44-.97,1.01-.97.61,0,1.06.41,1.07.97,0,.59-.44.99-1.09.98ZM110,78.19c-.54,0-.98-.46-.98-1.01,0-.56.44-.99,1-.99.52,0,1.06.53,1.06,1,0,.47-.58,1-1.08.99ZM110.01,69.06c.5,0,1.07.54,1.06,1.01,0,.48-.56.99-1.07.99-.55,0-.98-.44-.98-1,0-.55.45-1.01.99-1ZM117.15,66.35c.61.03,1.04.46,1.01,1.02-.03.58-.51.97-1.15.94-.55-.03-.95-.49-.92-1.05.03-.55.48-.93,1.06-.9ZM124.46,61.81c.58,0,.99.39,1,.96,0,.56-.43,1-.98,1-.62,0-1.06-.39-1.07-.96-.01-.61.4-1,1.06-1ZM131.79,66.35c.53,0,1.08.49,1.07.97,0,.48-.55.98-1.07.98-.55,0-1-.44-1-.98,0-.55.44-.98,1-.97ZM138.87,69.06c.61,0,1.05.41,1.06.98,0,.6-.43,1.01-1.07,1.01-.55,0-.99-.44-.99-1,0-.55.46-1.01.99-1Z"/>
    <g>
      <path class="cls-1" d="M172.92,153.26c-.13-10.09,1.4-20.78,3.87-31.38.86-3.67-1.03-5.82-5.07-5.48-4.11.34-8.21.93-12.3,1.44-2.61.32-3.38,2.2-4,4.18-4.36,13.86-10.13,27.2-17.23,40.03-10.39,18.78-23.23,35.82-41.34,48.96-18.26,13.24-39.01,19.71-62.18,19.4-18.03-.24-33.66-14.89-34.11-31.64-.24-8.94,1.47-17.34,6.29-25.13.98-1.59,2.5-2.79,4.41-2.23,1.35.4,2.7,1.58,3.44,2.75.46.74.05,2.2-.41,3.15-2.55,5.23-4.03,10.66-4.66,16.38-1.53,13.88,7.74,23.69,22.78,24.3,17.51.71,32.36-5.1,45.45-15.42,13.63-10.74,23.52-24.19,32.06-38.59,7.2-12.15,13.02-24.87,18.08-37.91,1.54-3.98-.13-6.32-4.59-6.39-16.13-.23-32.23-.94-48.19-3.3-23.38-3.45-45.98-9.03-66.14-21.16-2.24-1.35-4.46-2.79-6.41-4.46-3.54-3.03-2.62-8.49,1.94-9.85,18.82-5.62,35.31-15.43,52.24-24.49,15.02-8.04,30.97-13.92,48.1-16.81,32.33-5.44,62.89-1.4,90.7,15.49,14.13,8.58,27.7,17.97,41.52,26.98,2.4,1.56,4.79,3.14,7.24,4.64,2.52,1.54,3.94,3.6,3.55,6.45-.38,2.74-2.28,4.34-4.96,5.34-14.49,5.38-29.31,9.75-44.5,13.04-4.82,1.04-5.91,3.13-3.83,7.3,4.04,8.12,10.11,14.65,18.04,19.7,4.76,3.04,5.34,5.25,2.52,9.86-7.86,12.85-14.57,26.16-18.04,40.66-1.28,5.36-1.78,10.89-2.46,16.36-.25,1.98-.63,3.72-2.95,4.26-2.46.57-3.77-.77-4.86-2.64-9.25-15.92-14.04-33.98-13.98-53.83ZM119.62,111.25c16.41.21,32.73-.72,48.98-2.86,20.25-2.67,40.01-7.16,59.32-13.41,1.93-.62,3.43-1.51,3.74-3.53.31-2-.77-3.29-2.45-4.41-10.02-6.67-19.88-13.55-30.02-20.05-14.58-9.33-30.18-16.65-47.8-19.67-2.32-.4-4.58-.49-5.93,1.72-1.32,2.14-.41,3.89,1.27,5.6,6.81,6.9,9.54,14.98,8.13,24.32-2.35,15.65-19.73,27.04-36.4,23.73-22.69-4.51-32.43-27.71-19.01-45.35,1.41-1.85,2.24-3.65.56-5.68-1.57-1.89-3.56-1.82-5.82-1.15-13.1,3.85-25.55,9-37.5,15.3-11.75,6.19-23.65,12.14-35.52,18.13-1.85.93-3.44,1.9-3.51,4.03-.06,2.13,1.31,3.41,3.28,4.17,8.16,3.17,16.16,6.84,24.54,9.37,24.06,7.26,48.98,9.43,74.14,9.75ZM102.29,74.36c-.18,10.9,9.53,20.31,21.15,20.49,12.72.2,22.56-8.46,22.85-20.11.27-11.22-9.55-20.67-21.65-20.83-12.21-.16-22.16,8.94-22.35,20.45Z"/>
      <path class="cls-1" d="M126.64.5c26.11.13,53.46,4.54,79.25,15.88,9.45,4.16,18.39,9.1,26.47,15.32.4.31,1.04.56,1.14.94.36,1.28,1.08,2.81.63,3.87-.68,1.63-2.38,1.04-3.76.36-12.05-5.92-24.6-10.74-37.61-14.52-27.46-7.97-55.57-10.64-84.23-8.98-31.73,1.85-61.64,9.69-89.84,23.26-1.47.71-3.09,1.71-4.3-.1-1.12-1.67-.41-3.14,1.22-4.38,12.18-9.31,25.92-16.01,40.66-21.04C78.26,3.61,101.07.54,126.64.5Z"/>
    </g>
  </g>
</svg>