<?xml version="1.0" encoding="UTF-8"?>
<svg id="Layer_2" data-name="Layer 2" xmlns="http://www.w3.org/2000/svg" viewBox="0 0 236.35 147.64">
  <defs>
    <style>
      .cls-1 {
        font-family: WanoQuin-Regular, 'Wano Quin';
        font-size: 109.1px;
      }

      .cls-1, .cls-2 {
        fill: #ffde17;
        stroke: #ffde17;
        stroke-miterlimit: 10;
      }
    </style>
  </defs>
  <g id="Layer_1-2" data-name="Layer 1">
    <g>
      <path class="cls-2" d="M206.67,44.12c-.17-.5-.35-.98-.63-1.43-.36-.57-.77-1.07-1.27-1.51-.56-.48-1.17-.85-1.85-1.12-1.09-.43-2.21-.53-3.36-.34-1.05.17-2,.6-2.85,1.26-.47.36-.89.8-1.24,1.29-.23.33-.44.69-.62,1.06-.34.72-.51,1.49-.54,2.29-.04,1.11.12,2.19.67,3.17.19.34.4.67.62.99.35.5.79.91,1.28,1.27.38.28.79.51,1.22.7.81.35,1.65.52,2.16.53,1.46,0,2.43-.24,3.41-.77.72-.38,1.34-.91,1.87-1.54.23-.28.43-.58.62-.89.29-.47.48-1,.62-1.54.29-1.14.29-2.29-.09-3.42ZM206.63,46.34c-.04.72-.19,1.42-.49,2.07-.18.38-.39.74-.63,1.08-.34.49-.77.9-1.23,1.26-.19.15-.4.27-.6.4-.04.03-.09.04-.15.07,0-.36,0-.69,0-1.03,0-.02.02-.05.03-.07.39-.39.77-.78,1.17-1.15.13-.12.16-.24.16-.41,0-.32,0-.65,0-.97.38-.18.52-.52.36-.84-.17-.33-.58-.43-.86-.19-.18.15-.31.34-.23.6.06.17.17.31.33.39.09.04.1.09.1.18,0,.29,0,.58,0,.86,0,.07-.03.15-.08.19-.39.39-.78.78-1.17,1.17-.07.07-.1.14-.1.25,0,.36,0,.73,0,1.09,0,.05-.03.12-.06.13-.31.13-.62.25-.95.37v-.18c0-.69,0-1.38,0-2.07,0-.11.04-.18.11-.24.16-.15.32-.3.47-.46.03-.03.04-.09.05-.14,0-.1,0-.2,0-.29.08-.04.17-.07.23-.13.22-.17.27-.5.13-.75-.14-.24-.48-.35-.73-.24-.41.18-.44.61-.28.84.06.09.16.15.25.21.13.08.17.26.06.38-.16.17-.33.32-.49.49-.05.05-.08.15-.08.22,0,.8,0,1.59,0,2.42-.39.05-.78.1-1.17.15,0-.07,0-.11,0-.15,0-.66,0-1.31,0-1.97,0-.09.02-.13.11-.18.26-.15.39-.37.34-.65-.04-.18-.32-.46-.56-.46-.27,0-.52.18-.58.44-.07.27.05.54.29.66.09.05.12.1.12.2,0,.69,0,1.38,0,2.1-.39-.05-.77-.09-1.16-.14,0-.08,0-.14,0-.19,0-.76,0-1.52,0-2.28,0-.05-.02-.11-.05-.14-.14-.15-.28-.29-.43-.42-.13-.11-.19-.24-.14-.43.17-.07.33-.18.38-.39.03-.11.03-.25,0-.36-.06-.26-.31-.42-.58-.41-.23.01-.5.22-.55.44-.07.3.06.51.43.72,0,.04,0,.09,0,.14-.05.21.08.33.21.45.12.11.25.23.36.36.03.03.05.08.05.12,0,.75,0,1.51,0,2.3-.29-.11-.56-.22-.83-.32-.16-.05-.2-.14-.19-.31.02-.34.01-.68,0-1.02,0-.06-.03-.13-.07-.17-.36-.37-.7-.75-1.08-1.09-.16-.14-.2-.28-.19-.48.01-.27,0-.54,0-.8.39-.22.51-.43.43-.74-.07-.26-.3-.43-.59-.42-.23,0-.5.19-.55.46-.06.31.06.52.44.7,0,.37,0,.74,0,1.11,0,.07.04.16.08.2.29.3.58.59.87.89.09.09.18.18.28.26.08.07.1.15.1.25,0,.3,0,.6,0,.92-.15-.09-.28-.15-.4-.24-.38-.27-.76-.54-1.07-.91-.22-.27-.44-.55-.65-.82-.28-.35-.43-.78-.61-1.19-.32-.74-.41-1.53-.39-2.33.01-.53.07-1.06.25-1.55.18-.48.4-.95.64-1.41.15-.29.37-.55.58-.79.47-.52,1-.98,1.64-1.31v.34c0,.13-.02.27,0,.4.05.3-.11.48-.32.64-.02.02-.04.04-.06.06-.29.29-.57.59-.87.87-.07.07-.09.14-.09.23,0,.36,0,.73,0,1.1-.37.17-.5.39-.44.7.05.27.34.46.58.45.29,0,.51-.19.57-.47.06-.3-.08-.52-.44-.69,0-.35,0-.7,0-1.05,0-.05.06-.11.1-.16.07-.07.14-.13.21-.2.32-.32.63-.63.94-.96.05-.05.09-.15.09-.23,0-.37,0-.74,0-1.1,0-.04.03-.1.05-.11.31-.13.63-.26.96-.39,0,.08,0,.12,0,.16,0,.7,0,1.4,0,2.1,0,.07-.04.15-.08.21-.13.14-.26.27-.4.39-.11.09-.16.2-.14.34,0,.06,0,.12,0,.14-.14.12-.26.22-.36.33-.1.1-.12.4-.02.54.15.21.32.36.6.33.26-.03.45-.2.51-.47.05-.24-.07-.49-.29-.62-.16-.09-.18-.27-.05-.4.17-.17.34-.33.51-.51.03-.03.04-.1.04-.15,0-.78,0-1.56,0-2.34,0-.03,0-.06,0-.12.37-.05.75-.09,1.14-.14,0,.08,0,.12,0,.17,0,.65,0,1.29,0,1.94,0,.09-.02.15-.11.19-.22.1-.33.3-.32.55.01.25.14.42.36.52.21.09.46.03.63-.14.16-.16.23-.34.16-.56-.06-.18-.19-.3-.35-.39-.04-.02-.08-.08-.08-.12,0-.69,0-1.39,0-2.08,0-.01,0-.03.01-.08.39.05.77.09,1.17.14,0,.08,0,.14,0,.19,0,.76,0,1.52,0,2.28,0,.06.04.13.08.17.16.16.32.32.48.48.13.14.11.33-.06.4-.25.1-.39.45-.28.72.11.27.43.43.71.35.22-.06.37-.2.42-.44.05-.23-.02-.43-.2-.58-.07-.05-.15-.08-.23-.12.08-.44-.24-.63-.49-.86-.09-.09-.15-.17-.15-.3,0-.67,0-1.35,0-2.03v-.19c.33.13.64.24.94.37.04.01.07.08.07.13,0,.37,0,.75,0,1.12,0,.07.04.17.08.22.26.28.54.55.81.82.13.13.26.25.38.38.03.03.06.09.06.13,0,.35,0,.7,0,1.04-.34.15-.51.46-.44.71.06.2.31.46.57.45.28-.01.51-.18.57-.45.07-.31-.07-.54-.41-.71,0-.36,0-.73,0-1.1,0-.09,0-.17-.1-.21-.02,0-.03-.02-.04-.04-.36-.36-.71-.74-1.08-1.09-.13-.12-.15-.23-.15-.39,0-.26,0-.53,0-.82.05.02.09.03.13.06.34.25.68.47,1,.74.59.5,1.03,1.12,1.38,1.82.48.96.65,1.97.59,3.04ZM204.73,47.31c-.15,0-.28-.14-.28-.3,0-.16.12-.29.27-.29.18,0,.31.12.31.29,0,.18-.13.3-.31.3ZM202.71,48.12c-.16,0-.29-.12-.29-.29,0-.16.13-.29.28-.3.15,0,.31.15.31.29,0,.14-.15.29-.3.29ZM200.62,49.47c-.19,0-.31-.12-.3-.3,0-.17.13-.29.3-.29.16,0,.28.13.28.29,0,.17-.12.29-.28.29ZM198.51,48.12c-.16,0-.28-.12-.28-.29,0-.17.12-.29.29-.29.17,0,.3.12.3.29,0,.17-.13.29-.31.29ZM196.5,47.31c-.15,0-.28-.14-.28-.3,0-.17.13-.3.28-.29.15,0,.3.16.3.3,0,.14-.16.3-.31.3ZM196.5,44.6c.14,0,.3.16.3.3,0,.14-.16.29-.31.29-.16,0-.28-.13-.28-.3,0-.16.13-.3.28-.3ZM198.54,43.79c.17,0,.3.14.29.3,0,.17-.15.29-.33.28-.16,0-.27-.14-.26-.31,0-.16.14-.28.3-.27ZM200.62,42.44c.17,0,.28.12.28.29,0,.17-.12.3-.28.3-.18,0-.3-.12-.31-.29,0-.18.11-.3.3-.3ZM202.71,43.79c.15,0,.31.15.31.29,0,.14-.16.29-.31.29-.16,0-.29-.13-.29-.29,0-.16.12-.29.29-.29ZM204.73,44.6c.18,0,.3.12.3.29,0,.18-.12.3-.3.3-.16,0-.28-.13-.28-.3,0-.16.13-.3.28-.3Z"/>
      <g>
        <path class="cls-2" d="M214.44,69.64c-.04-3,.4-6.18,1.1-9.33.24-1.09-.29-1.73-1.45-1.63-1.17.1-2.34.28-3.51.43-.74.1-.96.66-1.14,1.24-1.24,4.12-2.89,8.09-4.91,11.91-2.96,5.59-6.62,10.65-11.79,14.56-5.21,3.94-11.12,5.86-17.73,5.77-5.14-.07-9.6-4.43-9.73-9.41-.07-2.66.42-5.16,1.79-7.48.28-.47.71-.83,1.26-.66.39.12.77.47.98.82.13.22.02.65-.12.94-.73,1.55-1.15,3.17-1.33,4.87-.44,4.13,2.21,7.05,6.5,7.23,4.99.21,9.23-1.52,12.96-4.59,3.89-3.19,6.71-7.19,9.14-11.48,2.05-3.61,3.71-7.4,5.15-11.28.44-1.18-.04-1.88-1.31-1.9-4.6-.07-9.19-.28-13.74-.98-6.67-1.03-13.11-2.68-18.86-6.29-.64-.4-1.27-.83-1.83-1.33-1.01-.9-.75-2.52.55-2.93,5.37-1.67,10.07-4.59,14.9-7.28,4.28-2.39,8.83-4.14,13.72-5,9.22-1.62,17.93-.42,25.86,4.61,4.03,2.55,7.9,5.34,11.84,8.03.68.47,1.37.93,2.06,1.38.72.46,1.12,1.07,1.01,1.92-.11.82-.65,1.29-1.42,1.59-4.13,1.6-8.36,2.9-12.69,3.88-1.37.31-1.69.93-1.09,2.17,1.15,2.42,2.88,4.36,5.14,5.86,1.36.9,1.52,1.56.72,2.93-2.24,3.82-4.16,7.78-5.14,12.09-.37,1.59-.51,3.24-.7,4.87-.07.59-.18,1.11-.84,1.27-.7.17-1.07-.23-1.39-.79-2.64-4.73-4-10.11-3.99-16.01ZM199.24,57.15c4.68.06,9.33-.21,13.97-.85,5.78-.8,11.41-2.13,16.92-3.99.55-.19.98-.45,1.07-1.05.09-.59-.22-.98-.7-1.31-2.86-1.98-5.67-4.03-8.56-5.96-4.16-2.78-8.61-4.95-13.63-5.85-.66-.12-1.31-.14-1.69.51-.38.64-.12,1.16.36,1.67,1.94,2.05,2.72,4.45,2.32,7.23-.67,4.66-5.63,8.04-10.38,7.06-6.47-1.34-9.25-8.24-5.42-13.49.4-.55.64-1.09.16-1.69-.45-.56-1.02-.54-1.66-.34-3.73,1.15-7.29,2.68-10.69,4.55-3.35,1.84-6.74,3.61-10.13,5.39-.53.28-.98.57-1,1.2-.02.63.37,1.01.93,1.24,2.33.94,4.61,2.03,7,2.79,6.86,2.16,13.97,2.8,21.14,2.9ZM194.3,46.17c-.05,3.24,2.72,6.04,6.03,6.09,3.63.06,6.43-2.52,6.51-5.98.08-3.34-2.72-6.15-6.17-6.2-3.48-.05-6.32,2.66-6.37,6.08Z"/>
        <path class="cls-2" d="M201.24,24.21c7.44.04,15.25,1.35,22.6,4.72,2.7,1.24,5.24,2.71,7.55,4.56.11.09.3.17.33.28.1.38.31.83.18,1.15-.19.48-.68.31-1.07.11-3.44-1.76-7.02-3.2-10.72-4.32-7.83-2.37-15.85-3.17-24.02-2.67-9.05.55-17.58,2.88-25.62,6.92-.42.21-.88.51-1.23-.03-.32-.5-.12-.93.35-1.3,3.47-2.77,7.39-4.76,11.59-6.26,6.27-2.23,12.78-3.15,20.07-3.16Z"/>
      </g>
      <text class="cls-1" transform="translate(.5 89.2) scale(1.13 1)"><tspan x="0" y="0">SIA</tspan></text>
    </g>
  </g>
</svg>